<svg width="150" height="60" viewBox="0 0 150 60" fill="none" xmlns="http://www.w3.org/2000/svg">
  <path d="M20.5 12C15.5 12 11.5 16 11.5 25C11.5 34 15.5 38 20.5 38C25.5 38 29.5 34 29.5 25C29.5 16 25.5 12 20.5 12ZM20.5 32C18 32 17 30 17 25C17 20 18 18 20.5 18C23 18 24 20 24 25C24 30 23 32 20.5 32Z" fill="#E67E22"/>
  <path d="M43 12.5V37.5H53C59 37.5 63.5 33 63.5 25C63.5 17 59 12.5 53 12.5H43ZM48.5 32.5V17.5H52C55.5 17.5 58 19.5 58 25C58 30.5 55.5 32.5 52 32.5H48.5Z" fill="#E67E22"/>
  <path d="M79 12.5L69 37.5H75L76.5 33H85.5L87 37.5H93L83 12.5H79ZM78 28L81 19L84 28H78Z" fill="#E67E22"/>
  <path d="M107.5 12.5H95V37.5H101V29H107.5C113 29 116 25.5 116 20.75C116 16 113 12.5 107.5 12.5ZM106.5 24H101V17.5H106.5C108.5 17.5 110 18.5 110 20.75C110 23 108.5 24 106.5 24Z" fill="#E67E22"/>
  <path d="M120 12.5V17.5H127.5V37.5H133.5V17.5H141V12.5H120Z" fill="#E67E22"/>
</svg> 