<svg width="61" height="34" viewBox="0 0 61 34" fill="none" xmlns="http://www.w3.org/2000/svg">
<path d="M14.5667 4C13.7445 4.98559 12.1002 7.28861 10.1984 9.93337C7.80957 13.2553 6.31544 18.1846 4.8321 21.6515C4.21571 23.0922 4.00252 24.3012 4.00004 24.7173C3.98099 27.9176 10.7432 18.7096 14.8019 15.2377C16.9179 13.4278 19.3411 11.9343 21.082 10.0324C22.6778 8.28904 24.6306 6.98154 26.0372 5.89937C27.7562 4.57685 22.9962 10.7555 20.6016 13.5637C18.1758 16.4084 17.8751 19.8289 17.0455 22.7287C16.4332 24.869 15.3938 26.2823 15.6365 26.4532C19.5899 29.2367 23.9471 19.7001 27.4339 17.3798C31.6119 14.5994 36.1804 9.13102 38.3323 6.97906C39.3204 5.991 40.3159 5.32238 40.8954 5.3199C42.9176 5.31126 39.0034 10.0919 36.6979 14.4676C35.0777 17.5427 33.0602 20.8294 31.4951 22.8129C30.0451 24.6507 29.5932 26.7726 28.521 28.7562C28.2561 29.2462 28.1074 29.7443 28.5136 29.7517C33.0963 29.8355 38.6369 21.6911 42.6214 18.1252C44.8541 16.1269 47.2448 14.2422 49.2283 12.8381C52.6016 10.4503 55.6694 6.64476 56.3305 6.39464C58.0082 5.76004 54.8522 10.4286 51.9721 14.7969C50.2929 17.344 48.2551 19.0167 47.1754 20.8318C46.0221 22.7708 45.442 24.7915 44.6991 26.7751C44.5041 27.2957 44.1245 27.7632 44.2013 28.1792C44.2781 28.5952 44.7684 28.9221 45.9199 28.7636C51.2119 26.9509 52.8612 25.9604 54.342 24.9748C55.1691 24.3161 56.1498 23.3354 56.6648 22.8204" stroke="#F36F21" stroke-width="7" stroke-linecap="round"/>
</svg>
